<svg xmlns:xlink="http://www.w3.org/1999/xlink" xmlns="http://www.w3.org/2000/svg" viewBox="0 0 369.9130434782609 76.07878530337751" preserveAspectRatio="xMidYMid meet" class="css-1r4bsbq" id="daaadfbc" width="369.9130434782609"  height="76.07878530337751" ><defs id="SvgjsDefs1999"></defs><g id="SvgjsG2000" featurekey="S6ay6y-0" transform="matrix(1.2896061807272787,0,0,1.2896061807272787,-3.224012377157465,-3.224004997971708)" fill="#FFFFFF"><title xmlns="http://www.w3.org/2000/svg">1</title><path xmlns="http://www.w3.org/2000/svg" d="M32,16.5H56.24a1.49861,1.49861,0,0,1,1.3.75,29.56871,29.56871,0,0,1,3.03,7.37,1.57067,1.57067,0,0,1-.26005,1.3,1.5914,1.5914,0,0,1-1.19.58H32A5.50968,5.50968,0,0,0,26.5,32,1.498,1.498,0,0,1,25,33.5H18A1.498,1.498,0,0,1,16.5,32,15.51337,15.51337,0,0,1,32,16.5Z" fill="#FFFFFF"></path><path xmlns="http://www.w3.org/2000/svg" d="M32,47.5H7.76a1.49874,1.49874,0,0,1-1.3-.75,29.57057,29.57057,0,0,1-3.03-7.37,1.47647,1.47647,0,0,1,.12-1.06,1.51388,1.51388,0,0,1,1.33-.82H32A5.50972,5.50972,0,0,0,37.5,32,1.498,1.498,0,0,1,39,30.5h7A1.498,1.498,0,0,1,47.5,32,15.51337,15.51337,0,0,1,32,47.5Z" fill="#FFFFFF"></path><path xmlns="http://www.w3.org/2000/svg" d="M4,33.5A1.498,1.498,0,0,1,2.5,32,29.48784,29.48784,0,0,1,51.49,9.87,1.54256,1.54256,0,0,1,52,11.13a1.51761,1.51761,0,0,1-1.5,1.37H32A19.52509,19.52509,0,0,0,12.5,32,1.498,1.498,0,0,1,11,33.5Z" fill="#FFFFFF"></path><path xmlns="http://www.w3.org/2000/svg" d="M61.5,32c.07664,25.20862-30.16446,38.86111-48.99012,22.12964A1.50835,1.50835,0,0,1,12.31,52.09a1.49265,1.49265,0,0,1,1.19-.59H32A19.52509,19.52509,0,0,0,51.5,32,1.498,1.498,0,0,1,53,30.5h7A1.498,1.498,0,0,1,61.5,32Z" fill="#FFFFFF"></path></g><g id="SvgjsG2001" featurekey="j5pGhi-0" transform="matrix(2.654867282244033,0,0,2.654867282244033,92.44801971925544,6.488709499091083)" fill="#FFFFFF"><path d="M2.3926 17.3633 q-0.87890625 -1.46484375 -1.0546875 -2.880859375 q0 -10.16601563 0 -10.14648438 l1.3672 0 l0 5.9766 q0.869140625 -1.064453125 1.943359375 -1.586914063 t2.3535 -0.52246 q2.265625 0 3.876953125 1.650390625 t1.6113 4.0039 q0 2.314453125 -1.62109375 3.955078125 t-3.9063 1.6406 q-1.30859375 0 -2.456054688 -0.5029296875 t-2.1143 -1.5869 z M6.8457 18.1348 q1.162109375 0 2.133789063 -0.5712890625 t1.5479 -1.5869 t0.57617 -2.168 q0 -1.1328125 -0.5810546875 -2.172851563 t-1.5625 -1.6113 t-2.0947 -0.57129 q-1.1328125 0 -2.1484375 0.5712890625 t-1.5625 1.5527 t-0.54688 2.1924 q0 1.865234375 1.23046875 3.115234375 t3.0078 1.25 z M15.039103125 4.59 l1.3867 0 l0 14.854 l-1.3867 0 l0 -14.854 z M24.335940625 8.203 q2.470703125 0 4.1015625 1.787109375 q1.50390625 1.630859375 1.50390625 3.876953125 q0.01953125 5.546875 0 5.634765625 l-1.4551 0 l0 -2.4316 q-1.142578125 2.12890625 -4.150390625 2.3828125 q-2.4609375 0 -4.018554688 -1.674804688 t-1.5576 -3.9111 q0 -2.2265625 1.474609375 -3.8671875 q1.630859375 -1.796875 4.1015625 -1.796875 z M24.335940625 9.551 q-1.708984375 0 -2.939453125 1.26953125 t-1.2305 3.0664 q0 1.162109375 0.6298828125 2.236328125 t2.1338 1.8164 q3.76953125 0.83984375 5.361328125 -3.427734375 q0.087890625 -1.3671875 -0.29296875 -2.6171875 q-0.2734375 -0.56640625 -0.751953125 -1.07421875 q-1.201171875 -1.26953125 -2.91015625 -1.26953125 z M43.007984375 10.7031 l-1.0938 0.68359 q-1.416015625 -1.89453125 -3.8671875 -1.89453125 q-1.962890625 0 -3.256835938 1.259765625 t-1.2939 3.0664 q0 1.171875 0.595703125 2.211914063 t1.6309 1.6064 t2.3242 0.56641 q2.373046875 0 3.8671875 -1.875 l1.0938 0.71289 q-0.771484375 1.15234375 -2.065429688 1.782226563 t-2.9541 0.62988 q-2.529296875 0 -4.204101563 -1.611328125 t-1.6748 -3.916 q0 -1.5625 0.7861328125 -2.895507813 t2.1484 -2.0801 t3.0615 -0.74707 q1.0546875 0 2.045898438 0.322265625 t1.6846 0.84473 t1.1719 1.333 z M45.625028125 4.59 l1.3867 0 l0 8.457 l4.9512 -4.3164 l2.0313 0 l-4.4824 4.0723 l4.8242 6.6406 l-1.9531 0 l-4.2188 -5.7617 l-1.1523 0.94727 l0 4.8145 l-1.3867 0 l0 -14.854 z M56.61135 17.3633 q-0.87890625 -1.46484375 -1.0546875 -2.880859375 q0 -10.16601563 0 -10.14648438 l1.3672 0 l0 5.9766 q0.869140625 -1.064453125 1.943359375 -1.586914063 t2.3535 -0.52246 q2.265625 0 3.876953125 1.650390625 t1.6113 4.0039 q0 2.314453125 -1.62109375 3.955078125 t-3.9063 1.6406 q-1.30859375 0 -2.456054688 -0.5029296875 t-2.1143 -1.5869 z M61.06445 18.1348 q1.162109375 0 2.133789063 -0.5712890625 t1.5479 -1.5869 t0.57617 -2.168 q0 -1.1328125 -0.5810546875 -2.172851563 t-1.5625 -1.6113 t-2.0947 -0.57129 q-1.1328125 0 -2.1484375 0.5712890625 t-1.5625 1.5527 t-0.54688 2.1924 q0 1.865234375 1.23046875 3.115234375 t3.0078 1.25 z M74.531253125 8.203 q2.470703125 0 4.1015625 1.787109375 q1.474609375 1.640625 1.474609375 3.876953125 t-1.5625 3.9111 t-4.0137 1.6748 q-2.4609375 0 -4.018554688 -1.674804688 t-1.5576 -3.9111 q0 -2.2265625 1.474609375 -3.8671875 q1.630859375 -1.796875 4.1015625 -1.796875 z M74.531253125 9.551 q-1.708984375 0 -2.939453125 1.26953125 t-1.2305 3.0664 q0 1.162109375 0.5615234375 2.172851563 t1.5186 1.5527 t2.0898 0.54199 q1.15234375 0 2.104492188 -0.5419921875 t1.5088 -1.5527 t0.55664 -2.1729 q0 -1.796875 -1.23046875 -3.06640625 t-2.9395 -1.2695 z M87.70508125 8.203 q2.470703125 0 4.1015625 1.787109375 q1.474609375 1.640625 1.474609375 3.876953125 t-1.5625 3.9111 t-4.0137 1.6748 q-2.4609375 0 -4.018554688 -1.674804688 t-1.5576 -3.9111 q0 -2.2265625 1.474609375 -3.8671875 q1.630859375 -1.796875 4.1015625 -1.796875 z M87.70508125 9.551 q-1.708984375 0 -2.939453125 1.26953125 t-1.2305 3.0664 q0 1.162109375 0.5615234375 2.172851563 t1.5186 1.5527 t2.0898 0.54199 q1.15234375 0 2.104492188 -0.5419921875 t1.5088 -1.5527 t0.55664 -2.1729 q0 -1.796875 -1.23046875 -3.06640625 t-2.9395 -1.2695 z M95.800809375 4.59 l1.3867 0 l0 8.457 l4.9512 -4.3164 l2.0313 0 l-4.4824 4.0723 l4.8242 6.6406 l-1.9531 0 l-4.2188 -5.7617 l-1.1523 0.94727 l0 4.8145 l-1.3867 0 l0 -14.854 z" fill="#FFFFFF"></path></g></svg>