<svg xmlns:xlink="http://www.w3.org/1999/xlink" xmlns="http://www.w3.org/2000/svg" class="css-ze2te4 css-qd6ojx" viewBox="0 0 76.08695652173913 76.07878530337751" width="110"  height="110" ><g transform="translate(-3.224012377157465, -3.224004997971708) scale(1.2896061807272787)" class="css-1e98oqk" fill="#FFFFFF"><title xmlns="http://www.w3.org/2000/svg">1</title><path xmlns="http://www.w3.org/2000/svg" d="M32,16.5H56.24a1.49861,1.49861,0,0,1,1.3.75,29.56871,29.56871,0,0,1,3.03,7.37,1.57067,1.57067,0,0,1-.26005,1.3,1.5914,1.5914,0,0,1-1.19.58H32A5.50968,5.50968,0,0,0,26.5,32,1.498,1.498,0,0,1,25,33.5H18A1.498,1.498,0,0,1,16.5,32,15.51337,15.51337,0,0,1,32,16.5Z" fill="#FFFFFF"></path><path xmlns="http://www.w3.org/2000/svg" d="M32,47.5H7.76a1.49874,1.49874,0,0,1-1.3-.75,29.57057,29.57057,0,0,1-3.03-7.37,1.47647,1.47647,0,0,1,.12-1.06,1.51388,1.51388,0,0,1,1.33-.82H32A5.50972,5.50972,0,0,0,37.5,32,1.498,1.498,0,0,1,39,30.5h7A1.498,1.498,0,0,1,47.5,32,15.51337,15.51337,0,0,1,32,47.5Z" fill="#FFFFFF"></path><path xmlns="http://www.w3.org/2000/svg" d="M4,33.5A1.498,1.498,0,0,1,2.5,32,29.48784,29.48784,0,0,1,51.49,9.87,1.54256,1.54256,0,0,1,52,11.13a1.51761,1.51761,0,0,1-1.5,1.37H32A19.52509,19.52509,0,0,0,12.5,32,1.498,1.498,0,0,1,11,33.5Z" fill="#FFFFFF"></path><path xmlns="http://www.w3.org/2000/svg" d="M61.5,32c.07664,25.20862-30.16446,38.86111-48.99012,22.12964A1.50835,1.50835,0,0,1,12.31,52.09a1.49265,1.49265,0,0,1,1.19-.59H32A19.52509,19.52509,0,0,0,51.5,32,1.498,1.498,0,0,1,53,30.5h7A1.498,1.498,0,0,1,61.5,32Z" fill="#FFFFFF"></path></g></svg>